<svg width="21" height="21" viewBox="0 0 21 21" fill="none" xmlns="http://www.w3.org/2000/svg">
<rect x="0.5" y="0.5" width="20" height="20" rx="3.5" fill="#1D1D1D" stroke="#393939"/>
<path fill-rule="evenodd" clip-rule="evenodd" d="M8.23535 8.23523H7C5.89543 8.23523 5 9.13066 5 10.2352V13.9999C5 15.1045 5.89543 15.9999 7 15.9999H10.7647C11.8693 15.9999 12.7647 15.1045 12.7647 13.9999V12.7647H11.7647V13.9999C11.7647 14.5522 11.317 14.9999 10.7647 14.9999H7C6.44771 14.9999 6 14.5522 6 13.9999V10.2352C6 9.68294 6.44771 9.23523 7 9.23523H8.23535V8.23523Z" fill="#878787"/>
<rect x="8.5" y="5.5" width="7" height="7" rx="1.5" stroke="#878787"/>
</svg>
