<svg width="34" height="50" viewBox="0 0 34 50" fill="none" xmlns="http://www.w3.org/2000/svg">
<path d="M5 0.5H29C31.4853 0.5 33.5 2.51472 33.5 5V5.75H0.5V5C0.5 2.51472 2.51472 0.5 5 0.5Z" fill="#CBCBCB" stroke="#303030"/>
<mask id="path-2-inside-1_595_28" fill="white">
<path fill-rule="evenodd" clip-rule="evenodd" d="M34 11.25H0V40C0 45.5228 4.47715 50 10 50H24C29.5228 50 34 45.5228 34 40V11.25ZM8.18518 15C7.14198 15 6.2963 15.8457 6.2963 16.8889V39.3611C6.2963 40.4043 7.14198 41.25 8.18518 41.25C9.22839 41.25 10.0741 40.4043 10.0741 39.3611V16.8889C10.0741 15.8457 9.22839 15 8.18518 15ZM15.1111 16.8889C15.1111 15.8457 15.9568 15 17 15C18.0432 15 18.8889 15.8457 18.8889 16.8889V39.3611C18.8889 40.4043 18.0432 41.25 17 41.25C15.9568 41.25 15.1111 40.4043 15.1111 39.3611V16.8889ZM25.8148 15C24.7716 15 23.9259 15.8457 23.9259 16.8889V39.3611C23.9259 40.4043 24.7716 41.25 25.8148 41.25C26.858 41.25 27.7037 40.4043 27.7037 39.3611V16.8889C27.7037 15.8457 26.858 15 25.8148 15Z"/>
</mask>
<path fill-rule="evenodd" clip-rule="evenodd" d="M34 11.25H0V40C0 45.5228 4.47715 50 10 50H24C29.5228 50 34 45.5228 34 40V11.25ZM8.18518 15C7.14198 15 6.2963 15.8457 6.2963 16.8889V39.3611C6.2963 40.4043 7.14198 41.25 8.18518 41.25C9.22839 41.25 10.0741 40.4043 10.0741 39.3611V16.8889C10.0741 15.8457 9.22839 15 8.18518 15ZM15.1111 16.8889C15.1111 15.8457 15.9568 15 17 15C18.0432 15 18.8889 15.8457 18.8889 16.8889V39.3611C18.8889 40.4043 18.0432 41.25 17 41.25C15.9568 41.25 15.1111 40.4043 15.1111 39.3611V16.8889ZM25.8148 15C24.7716 15 23.9259 15.8457 23.9259 16.8889V39.3611C23.9259 40.4043 24.7716 41.25 25.8148 41.25C26.858 41.25 27.7037 40.4043 27.7037 39.3611V16.8889C27.7037 15.8457 26.858 15 25.8148 15Z" fill="#CBCBCB"/>
<path d="M0 11.25V10.25H-1V11.25H0ZM34 11.25H35V10.25H34V11.25ZM0 12.25H34V10.25H0V12.25ZM1 40V11.25H-1V40H1ZM10 49C5.02944 49 1 44.9706 1 40H-1C-1 46.0751 3.92487 51 10 51V49ZM24 49H10V51H24V49ZM33 40C33 44.9706 28.9706 49 24 49V51C30.0751 51 35 46.0751 35 40H33ZM33 11.25V40H35V11.25H33ZM7.2963 16.8889C7.2963 16.398 7.69427 16 8.18518 16V14C6.58969 14 5.2963 15.2934 5.2963 16.8889H7.2963ZM7.2963 39.3611V16.8889H5.2963V39.3611H7.2963ZM8.18518 40.25C7.69427 40.25 7.2963 39.852 7.2963 39.3611H5.2963C5.2963 40.9566 6.5897 42.25 8.18518 42.25V40.25ZM9.07407 39.3611C9.07407 39.852 8.6761 40.25 8.18518 40.25V42.25C9.78068 42.25 11.0741 40.9566 11.0741 39.3611H9.07407ZM9.07407 16.8889V39.3611H11.0741V16.8889H9.07407ZM8.18518 16C8.6761 16 9.07407 16.398 9.07407 16.8889H11.0741C11.0741 15.2934 9.78067 14 8.18518 14V16ZM17 14C15.4045 14 14.1111 15.2934 14.1111 16.8889H16.1111C16.1111 16.398 16.5091 16 17 16V14ZM19.8889 16.8889C19.8889 15.2934 18.5955 14 17 14V16C17.4909 16 17.8889 16.398 17.8889 16.8889H19.8889ZM19.8889 39.3611V16.8889H17.8889V39.3611H19.8889ZM17 42.25C18.5955 42.25 19.8889 40.9566 19.8889 39.3611H17.8889C17.8889 39.852 17.4909 40.25 17 40.25V42.25ZM14.1111 39.3611C14.1111 40.9566 15.4045 42.25 17 42.25V40.25C16.5091 40.25 16.1111 39.852 16.1111 39.3611H14.1111ZM14.1111 16.8889V39.3611H16.1111V16.8889H14.1111ZM24.9259 16.8889C24.9259 16.398 25.3239 16 25.8148 16V14C24.2193 14 22.9259 15.2934 22.9259 16.8889H24.9259ZM24.9259 39.3611V16.8889H22.9259V39.3611H24.9259ZM25.8148 40.25C25.3239 40.25 24.9259 39.852 24.9259 39.3611H22.9259C22.9259 40.9566 24.2193 42.25 25.8148 42.25V40.25ZM26.7037 39.3611C26.7037 39.852 26.3057 40.25 25.8148 40.25V42.25C27.4103 42.25 28.7037 40.9566 28.7037 39.3611H26.7037ZM26.7037 16.8889V39.3611H28.7037V16.8889H26.7037ZM25.8148 16C26.3057 16 26.7037 16.398 26.7037 16.8889H28.7037C28.7037 15.2934 27.4103 14 25.8148 14V16Z" fill="#303030" mask="url(#path-2-inside-1_595_28)"/>
</svg>
