<svg width="500" height="500" viewBox="0 0 500 500" fill="none" xmlns="http://www.w3.org/2000/svg">
<rect x="2.5" y="2.5" width="495" height="495" rx="67.5" fill="#0A0A0A" stroke="#3C3C3C" stroke-width="5"/>
<g filter="url(#filter0_d)">
<rect x="50" y="34" width="107.143" height="430" rx="30" fill="#0E1EAE"/>
<rect x="51.5" y="35.5" width="104.143" height="427" rx="28.5" stroke="#00063C" stroke-width="3"/>
</g>
<g filter="url(#filter1_d)">
<rect x="193" y="89" width="107.143" height="375" rx="30" fill="#0E1EAE"/>
<rect x="194.5" y="90.5" width="104.143" height="372" rx="28.5" stroke="#00063C" stroke-width="3"/>
</g>
<g filter="url(#filter2_d)">
<rect x="336" y="144" width="107.143" height="320" rx="30" fill="#0E1EAE"/>
<rect x="337.5" y="145.5" width="104.143" height="317" rx="28.5" stroke="#00063C" stroke-width="3"/>
</g>
<g filter="url(#filter3_d)">
<path d="M231.297 348H190.656V284.156H125.828V348H85.0469V184.172H125.828V251.391H190.656V184.172H231.297V348ZM283.328 348V184.172H346.609C368.453 184.172 385.234 188.062 396.953 195.844C408.672 203.531 414.531 214.734 414.531 229.453C414.531 237.703 412.375 244.969 408.062 251.25C403.844 257.438 397.75 261.984 389.781 264.891C398.969 267.234 406 271.688 410.875 278.25C415.75 284.812 418.188 292.406 418.188 301.031C418.188 317.25 412.609 329.156 401.453 336.75C390.297 344.25 374.078 348 352.797 348H283.328ZM324.109 279.797V315.375H352.797C360.672 315.375 366.766 313.828 371.078 310.734C375.391 307.547 377.547 303.375 377.547 298.219C377.547 286.312 370.375 280.172 356.031 279.797H324.109ZM324.109 252.375H349.141C365.547 252.375 373.75 246.656 373.75 235.219C373.75 228.656 371.734 224.016 367.703 221.297C363.766 218.484 357.719 217.078 349.562 217.078H324.109V252.375Z" fill="white"/>
<path d="M231.297 348V350H233.297V348H231.297ZM190.656 348H188.656V350H190.656V348ZM190.656 284.156H192.656V282.156H190.656V284.156ZM125.828 284.156V282.156H123.828V284.156H125.828ZM125.828 348V350H127.828V348H125.828ZM85.0469 348H83.0469V350H85.0469V348ZM85.0469 184.172V182.172H83.0469V184.172H85.0469ZM125.828 184.172H127.828V182.172H125.828V184.172ZM125.828 251.391H123.828V253.391H125.828V251.391ZM190.656 251.391V253.391H192.656V251.391H190.656ZM190.656 184.172V182.172H188.656V184.172H190.656ZM231.297 184.172H233.297V182.172H231.297V184.172ZM231.297 346H190.656V350H231.297V346ZM192.656 348V284.156H188.656V348H192.656ZM190.656 282.156H125.828V286.156H190.656V282.156ZM123.828 284.156V348H127.828V284.156H123.828ZM125.828 346H85.0469V350H125.828V346ZM87.0469 348V184.172H83.0469V348H87.0469ZM85.0469 186.172H125.828V182.172H85.0469V186.172ZM123.828 184.172V251.391H127.828V184.172H123.828ZM125.828 253.391H190.656V249.391H125.828V253.391ZM192.656 251.391V184.172H188.656V251.391H192.656ZM190.656 186.172H231.297V182.172H190.656V186.172ZM229.297 184.172V348H233.297V184.172H229.297ZM283.328 348H281.328V350H283.328V348ZM283.328 184.172V182.172H281.328V184.172H283.328ZM396.953 195.844L395.847 197.51L395.856 197.516L396.953 195.844ZM408.062 251.25L406.414 250.118L406.41 250.123L408.062 251.25ZM389.781 264.891L389.096 263.012L383.016 265.229L389.287 266.829L389.781 264.891ZM401.453 336.75L402.569 338.41L402.579 338.403L401.453 336.75ZM324.109 279.797V277.797H322.109V279.797H324.109ZM324.109 315.375H322.109V317.375H324.109V315.375ZM371.078 310.734L372.244 312.359L372.255 312.351L372.267 312.343L371.078 310.734ZM356.031 279.797L356.084 277.798L356.057 277.797H356.031V279.797ZM324.109 252.375H322.109V254.375H324.109V252.375ZM367.703 221.297L366.541 222.924L366.563 222.94L366.585 222.955L367.703 221.297ZM324.109 217.078V215.078H322.109V217.078H324.109ZM285.328 348V184.172H281.328V348H285.328ZM283.328 186.172H346.609V182.172H283.328V186.172ZM346.609 186.172C368.261 186.172 384.591 190.036 395.847 197.51L398.059 194.178C385.878 186.089 368.645 182.172 346.609 182.172V186.172ZM395.856 197.516C406.978 204.812 412.531 215.368 412.531 229.453H416.531C416.531 214.101 410.366 202.25 398.05 194.171L395.856 197.516ZM412.531 229.453C412.531 237.334 410.478 244.198 406.414 250.118L409.711 252.382C414.272 245.74 416.531 238.072 416.531 229.453H412.531ZM406.41 250.123C402.458 255.92 396.726 260.229 389.096 263.012L390.467 266.77C398.774 263.74 405.23 258.955 409.715 252.377L406.41 250.123ZM389.287 266.829C398.104 269.078 404.711 273.306 409.27 279.443L412.48 277.057C407.289 270.069 399.833 265.391 390.276 262.953L389.287 266.829ZM409.27 279.443C413.874 285.641 416.188 292.811 416.188 301.031H420.188C420.188 292.002 417.626 283.984 412.48 277.057L409.27 279.443ZM416.188 301.031C416.188 316.741 410.822 327.954 400.328 335.097L402.579 338.403C414.397 330.359 420.188 317.759 420.188 301.031H416.188ZM400.337 335.09C389.652 342.274 373.894 346 352.797 346V350C374.263 350 390.942 346.226 402.569 338.41L400.337 335.09ZM352.797 346H283.328V350H352.797V346ZM322.109 279.797V315.375H326.109V279.797H322.109ZM324.109 317.375H352.797V313.375H324.109V317.375ZM352.797 317.375C360.898 317.375 367.463 315.789 372.244 312.359L369.912 309.109C366.068 311.867 360.446 313.375 352.797 313.375V317.375ZM372.267 312.343C377.066 308.796 379.547 304.039 379.547 298.219H375.547C375.547 302.711 373.716 306.298 369.889 309.126L372.267 312.343ZM379.547 298.219C379.547 291.846 377.61 286.71 373.469 283.164C369.393 279.675 363.487 277.991 356.084 277.798L355.979 281.796C362.92 281.978 367.771 283.552 370.867 286.203C373.898 288.798 375.547 292.685 375.547 298.219H379.547ZM356.031 277.797H324.109V281.797H356.031V277.797ZM324.109 254.375H349.141V250.375H324.109V254.375ZM349.141 254.375C357.515 254.375 364.151 252.927 368.741 249.727C373.463 246.435 375.75 241.483 375.75 235.219H371.75C371.75 240.392 369.936 244.018 366.454 246.445C362.841 248.964 357.173 250.375 349.141 250.375V254.375ZM375.75 235.219C375.75 228.247 373.587 222.853 368.821 219.639L366.585 222.955C369.882 225.179 371.75 229.065 371.75 235.219H375.75ZM368.866 219.669C364.427 216.499 357.878 215.078 349.562 215.078V219.078C357.559 219.078 363.104 220.47 366.541 222.924L368.866 219.669ZM349.562 215.078H324.109V219.078H349.562V215.078ZM322.109 217.078V252.375H326.109V217.078H322.109Z" fill="#050613"/>
</g>
<defs>
<filter id="filter0_d" x="46" y="34" width="115.143" height="438" filterUnits="userSpaceOnUse" color-interpolation-filters="sRGB">
<feFlood flood-opacity="0" result="BackgroundImageFix"/>
<feColorMatrix in="SourceAlpha" type="matrix" values="0 0 0 0 0 0 0 0 0 0 0 0 0 0 0 0 0 0 127 0"/>
<feOffset dy="4"/>
<feGaussianBlur stdDeviation="2"/>
<feColorMatrix type="matrix" values="0 0 0 0 0 0 0 0 0 0 0 0 0 0 0 0 0 0 0.25 0"/>
<feBlend mode="normal" in2="BackgroundImageFix" result="effect1_dropShadow"/>
<feBlend mode="normal" in="SourceGraphic" in2="effect1_dropShadow" result="shape"/>
</filter>
<filter id="filter1_d" x="189" y="89" width="115.143" height="383" filterUnits="userSpaceOnUse" color-interpolation-filters="sRGB">
<feFlood flood-opacity="0" result="BackgroundImageFix"/>
<feColorMatrix in="SourceAlpha" type="matrix" values="0 0 0 0 0 0 0 0 0 0 0 0 0 0 0 0 0 0 127 0"/>
<feOffset dy="4"/>
<feGaussianBlur stdDeviation="2"/>
<feColorMatrix type="matrix" values="0 0 0 0 0 0 0 0 0 0 0 0 0 0 0 0 0 0 0.25 0"/>
<feBlend mode="normal" in2="BackgroundImageFix" result="effect1_dropShadow"/>
<feBlend mode="normal" in="SourceGraphic" in2="effect1_dropShadow" result="shape"/>
</filter>
<filter id="filter2_d" x="332" y="144" width="115.143" height="328" filterUnits="userSpaceOnUse" color-interpolation-filters="sRGB">
<feFlood flood-opacity="0" result="BackgroundImageFix"/>
<feColorMatrix in="SourceAlpha" type="matrix" values="0 0 0 0 0 0 0 0 0 0 0 0 0 0 0 0 0 0 127 0"/>
<feOffset dy="4"/>
<feGaussianBlur stdDeviation="2"/>
<feColorMatrix type="matrix" values="0 0 0 0 0 0 0 0 0 0 0 0 0 0 0 0 0 0 0.25 0"/>
<feBlend mode="normal" in2="BackgroundImageFix" result="effect1_dropShadow"/>
<feBlend mode="normal" in="SourceGraphic" in2="effect1_dropShadow" result="shape"/>
</filter>
<filter id="filter3_d" x="79.0469" y="182.172" width="345.141" height="175.828" filterUnits="userSpaceOnUse" color-interpolation-filters="sRGB">
<feFlood flood-opacity="0" result="BackgroundImageFix"/>
<feColorMatrix in="SourceAlpha" type="matrix" values="0 0 0 0 0 0 0 0 0 0 0 0 0 0 0 0 0 0 127 0"/>
<feOffset dy="4"/>
<feGaussianBlur stdDeviation="2"/>
<feColorMatrix type="matrix" values="0 0 0 0 0 0 0 0 0 0 0 0 0 0 0 0 0 0 0.25 0"/>
<feBlend mode="normal" in2="BackgroundImageFix" result="effect1_dropShadow"/>
<feBlend mode="normal" in="SourceGraphic" in2="effect1_dropShadow" result="shape"/>
</filter>
</defs>
</svg>
