<svg width="3" height="14" viewBox="0 0 3 14" fill="none" xmlns="http://www.w3.org/2000/svg">
<path d="M2.55957 9.07129H0.450195L0.151367 0.203125H2.8584L2.55957 9.07129ZM1.50488 10.46C1.93262 10.46 2.27539 10.5859 2.5332 10.8379C2.79688 11.0898 2.92871 11.4121 2.92871 11.8047C2.92871 12.1914 2.79688 12.5107 2.5332 12.7627C2.27539 13.0146 1.93262 13.1406 1.50488 13.1406C1.08301 13.1406 0.740234 13.0146 0.476562 12.7627C0.21875 12.5107 0.0898438 12.1914 0.0898438 11.8047C0.0898438 11.418 0.21875 11.0986 0.476562 10.8467C0.740234 10.5889 1.08301 10.46 1.50488 10.46Z" fill="#FF0000"/>
</svg>
