<svg width="25" height="25" viewBox="0 0 25 25" fill="none" xmlns="http://www.w3.org/2000/svg">
<path fill-rule="evenodd" clip-rule="evenodd" d="M11.375 0C10.2704 0 9.375 0.89543 9.375 2V2.99798C8.89678 3.15516 8.43449 3.34744 7.99117 3.57176L7.28508 2.86567C6.50403 2.08462 5.2377 2.08462 4.45665 2.86567L2.86566 4.45666C2.08461 5.23771 2.08461 6.50404 2.86566 7.28509L3.57176 7.99118C3.34744 8.4345 3.15516 8.89679 2.99798 9.375H2C0.895431 9.375 0 10.2704 0 11.375V13.625C0 14.7296 0.89543 15.625 2 15.625H2.99798C3.15516 16.1032 3.34744 16.5655 3.57176 17.0088L2.86567 17.7149C2.08462 18.496 2.08462 19.7623 2.86567 20.5433L4.45666 22.1343C5.23771 22.9154 6.50404 22.9154 7.28509 22.1343L7.99117 21.4282C8.43449 21.6526 8.89678 21.8448 9.375 22.002V23C9.375 24.1046 10.2704 25 11.375 25H13.625C14.7296 25 15.625 24.1046 15.625 23V22.002C16.1032 21.8449 16.5655 21.6526 17.0088 21.4283L17.7149 22.1343C18.496 22.9154 19.7623 22.9154 20.5433 22.1343L22.1343 20.5433C22.9154 19.7623 22.9154 18.496 22.1343 17.7149L21.4283 17.0088C21.6526 16.5655 21.8449 16.1032 22.002 15.625H23C24.1046 15.625 25 14.7296 25 13.625V11.375C25 10.2704 24.1046 9.375 23 9.375H22.002C21.8449 8.89678 21.6526 8.43449 21.4283 7.99116L22.1343 7.28508C22.9154 6.50403 22.9154 5.2377 22.1343 4.45666L20.5433 2.86567C19.7623 2.08462 18.496 2.08462 17.7149 2.86566L17.0088 3.57175C16.5655 3.34743 16.1032 3.15515 15.625 2.99797V2C15.625 0.895431 14.7296 0 13.625 0H11.375ZM12.1875 20.625C16.5022 20.625 20 17.1272 20 12.8125C20 8.49778 16.5022 5 12.1875 5C7.87278 5 4.37501 8.49778 4.37501 12.8125C4.37501 17.1272 7.87278 20.625 12.1875 20.625Z" fill="white"/>
</svg>
