<svg width="25" height="25" viewBox="0 0 25 25" fill="none" xmlns="http://www.w3.org/2000/svg">
<path fill-rule="evenodd" clip-rule="evenodd" d="M11.375 0C10.2704 0 9.375 0.89543 9.375 2V2.99796C8.89679 3.15513 8.43451 3.3474 7.99119 3.57172L7.28514 2.86567C6.50409 2.08462 5.23776 2.08462 4.45671 2.86567L2.86572 4.45666C2.08467 5.23771 2.08467 6.50404 2.86572 7.28509L3.57174 7.99111C3.3474 8.43445 3.15512 8.89676 2.99793 9.375H2C0.895431 9.375 0 10.2704 0 11.375V13.625C0 14.7296 0.89543 15.625 2 15.625H2.99793C3.15511 16.1032 3.3474 16.5655 3.57173 17.0089L2.8657 17.7149C2.08465 18.496 2.08465 19.7623 2.8657 20.5433L4.45669 22.1343C5.23774 22.9154 6.50407 22.9154 7.28512 22.1343L7.99117 21.4283C8.43449 21.6526 8.89678 21.8449 9.375 22.002V23C9.375 24.1046 10.2704 25 11.375 25H13.625C14.7296 25 15.625 24.1046 15.625 23V22.002C16.1032 21.8448 16.5655 21.6525 17.0088 21.4282L17.715 22.1343C18.496 22.9154 19.7623 22.9154 20.5434 22.1343L22.1344 20.5433C22.9154 19.7623 22.9154 18.496 22.1344 17.7149L21.4282 17.0088C21.6525 16.5655 21.8448 16.1032 22.002 15.625H23C24.1046 15.625 25 14.7296 25 13.625V11.375C25 10.2704 24.1046 9.375 23 9.375H22.002C21.8448 8.8968 21.6525 8.43452 21.4282 7.99122L22.1344 7.28508C22.9154 6.50403 22.9154 5.2377 22.1344 4.45666L20.5434 2.86567C19.7623 2.08462 18.496 2.08462 17.7149 2.86566L17.0088 3.57178C16.5655 3.34745 16.1032 3.15517 15.625 2.99799V2C15.625 0.895431 14.7296 0 13.625 0H11.375ZM12.1875 20.625C16.5022 20.625 20 17.1272 20 12.8125C20 8.49778 16.5022 5 12.1875 5C7.87275 5 4.37498 8.49778 4.37498 12.8125C4.37498 17.1272 7.87275 20.625 12.1875 20.625Z" fill="black"/>
</svg>
